<svg width="265" height="333" viewBox="0 0 265 333" fill="none" xmlns="http://www.w3.org/2000/svg">
<path fill-rule="evenodd" clip-rule="evenodd" d="M200.224 135.981C198.705 136.659 197.16 137.385 195.593 138.045C191.593 139.742 187.443 138.598 185.017 135.032C184.219 133.863 183.687 132.5 183.08 131.207C182.713 130.431 182.511 129.571 182.126 128.811C181.381 127.325 179.781 126.952 178.564 127.994C177.809 128.644 177.217 129.49 176.446 130.123C173.212 132.758 168.436 132.491 165.568 129.457C162.887 126.626 161.644 123.122 161.59 119.263C161.564 117.411 161.968 115.56 162.235 113.711C162.335 113.002 162.726 112.321 162.737 111.626C162.738 110.971 162.602 110.089 162.17 109.72C161.746 109.36 160.8 109.282 160.232 109.498C159.17 109.883 158.219 110.566 157.224 111.126C154.894 112.428 152.398 112.79 149.781 112.492C144.66 111.918 142.028 109.064 142.17 103.91C142.212 102.217 142.707 100.524 143.04 98.8421C143.15 98.2895 143.577 97.7409 143.532 97.2232C143.484 96.5744 143.23 95.8193 142.801 95.3687C142.512 95.0627 141.702 95.056 141.217 95.2092C140.56 95.4131 140.004 95.9403 139.375 96.2681C137.098 97.4495 134.894 98.8547 132.508 99.737C125.628 102.264 120.136 98.497 119.767 91.0468C119.686 89.3567 120.093 87.6363 120.329 85.9338C120.429 85.2334 120.862 84.5295 120.799 83.8637C120.741 83.2473 120.344 82.413 119.858 82.1649C119.349 81.9159 118.52 82.1623 117.895 82.3838C117.558 82.5018 117.351 83.0179 117.087 83.3517C114.28 86.912 110.378 88.5874 106.203 89.7854C105.932 89.865 105.646 89.9194 105.369 89.9578C99.5679 90.8064 95.5955 87.5899 95.3057 81.6578C95.176 78.9257 95.3383 76.1968 96.147 73.5338C96.481 72.4493 96.6721 71.2856 96.716 70.149C96.7726 68.6853 95.2318 67.8314 93.9933 68.6024C93.1536 69.1268 92.4509 69.8858 91.611 70.4184C89.8065 71.5606 88.024 72.7611 86.1143 73.6864C84.13 74.6497 81.9767 74.5337 79.8287 74.0657C76.5943 73.3756 74.6792 71.4999 74.4283 67.289C74.1875 63.2342 75.7682 59.7002 78.2979 56.5877C78.9791 55.7542 79.8598 55.4279 80.9101 55.3293C82.3922 55.1819 83.6977 54.569 84.5181 53.2822C84.872 52.7309 85.1373 51.9549 85.0557 51.3376C84.9388 50.3749 84.0412 49.8816 83.1816 49.873C82.2248 49.8605 81.1567 49.9994 80.3128 50.4254C78.7988 51.1858 77.3898 51.5408 75.8774 50.5815C74.1041 49.4483 72.8662 47.8936 72.6078 45.7625C72.1343 41.8543 72.9522 38.3235 75.8613 35.4714C78.7282 32.6587 82.1911 31.0073 86.1033 30.5362C89.2007 30.1564 92.3461 30.2124 95.4661 30.0874C96.0347 30.0684 96.6141 30.1891 97.1684 30.1205C98.5864 29.9542 99.6162 28.7082 99.0505 27.3925C98.1202 25.2273 98.8552 23.4213 99.7598 21.6382C102.15 16.8989 105.692 13.1868 110.24 10.5455C111.567 9.77789 113.128 9.28953 114.647 9.02887C119.351 8.20347 121.858 9.46327 124.262 13.5936C126.962 18.2431 127.474 18.4185 131.608 15.1633C135.005 12.4857 138.772 11.1572 143.054 10.987C146.198 10.8629 149.354 10.6492 152.423 11.4148C154.327 11.8897 156.264 12.5624 157.945 13.5692C160.538 15.119 162.027 17.5351 161.96 20.7182C161.941 21.4381 161.798 22.186 161.95 22.8634C162.104 23.5081 162.439 24.2745 162.945 24.6298C163.711 25.159 164.576 24.8239 165.266 24.1872C165.476 23.9906 165.702 23.811 165.881 23.5886C169.462 19.313 174.231 18.9078 179.189 19.7218C182.591 20.2792 185.653 21.8716 188.305 24.2017C190.941 26.5066 192.308 29.3356 192.341 32.8829C192.383 37.6916 192.422 37.7259 196.867 38.987C202.332 40.5331 207.109 43.3057 211.268 47.1435C212.412 48.195 213.476 49.4236 214.243 50.7717C215.96 53.7699 215.561 56.1294 213.178 58.5924C212.679 59.1054 212.064 59.5074 211.589 60.0296C210.42 61.3029 210.549 62.7902 211.933 63.7117C212.764 64.268 213.689 64.6641 214.563 65.1565C217.199 66.626 219.664 68.3428 221.728 70.56C222.702 71.5968 223.665 72.7068 224.356 73.9374C225.988 76.834 225.868 79.7284 223.777 82.3992C223.069 83.2972 222.258 84.1176 221.503 84.981C219.898 86.8353 219.714 88.8591 220.948 90.9542C221.815 92.4372 222.807 93.8514 223.724 95.3036C224.641 96.764 225.616 98.1939 226.385 99.7223C226.881 100.724 227.153 101.881 227.345 102.994C227.59 104.42 227.002 105.569 225.658 106.147C224.486 106.659 223.261 107.062 222.038 107.441C220.946 107.775 219.797 107.919 218.735 108.32C216.167 109.277 215.357 111.342 216.599 113.847C217.103 114.866 217.813 115.786 218.491 116.713C219.246 117.758 220.117 118.725 220.855 119.777C223.654 123.759 223.583 126.663 220.417 130.284C216.767 134.458 212.303 137.029 206.576 136.824C205.45 136.781 204.295 137.072 203.18 136.947C202.204 136.794 201.289 136.325 200.224 135.981Z" fill="#86604F"/>
<path fill-rule="evenodd" clip-rule="evenodd" d="M76.7364 77.0009C81.8794 78.895 86.6747 78.2451 91.6454 75.1533C91.6111 77.5105 91.6005 79.0415 91.5579 80.5631C91.4798 83.2134 91.9828 85.7306 93.2726 88.0408C94.9794 91.1041 97.4773 93.0105 101.001 93.5562C104.509 94.1013 107.81 93.5082 111.027 92.1094C112.438 91.5006 113.84 90.8997 115.548 90.1713C115.795 91.1227 115.964 91.7762 116.126 92.4294C116.407 93.5377 116.59 94.6912 116.987 95.763C119.532 102.528 124.631 105.55 132.368 103.736C134.152 103.322 135.847 102.495 137.888 101.755C138.031 102.661 138.188 103.421 138.264 104.194C139.013 112.314 142.885 116.026 151.031 116.193C153.139 116.234 155.255 115.857 157.526 115.65C158.411 116.691 157.888 118.031 157.874 119.234C157.833 122.811 158.859 126.077 160.617 129.085C162.329 132.01 164.627 134.244 168.046 135.195C171.096 136.042 173.958 135.891 176.757 134.418C177.61 133.968 178.464 133.493 179.433 132.974C180.239 134.356 180.904 135.619 181.686 136.812C184.145 140.551 187.598 142.511 192.071 142.659C193.991 142.725 195.752 142.286 197.403 141.342C198.382 140.782 199.33 140.164 200.228 139.617C201.276 140.206 200.842 140.935 200.616 141.524C198.624 146.483 196.042 151.141 193.033 155.529C189.465 160.739 185.787 165.871 181.432 170.452C174.836 177.379 167.432 183.194 158.668 187.04C151.117 190.351 143.242 191.963 134.931 191.666C127.194 191.392 119.579 190.475 112.044 188.767C103.592 186.843 95.9882 183.142 88.7959 178.229C81.5167 173.255 76.0482 166.771 71.4744 159.387C66.1976 150.879 63.9283 141.382 63.3369 131.499C62.6721 120.369 63.7148 109.345 66.3249 98.4886C68.1443 90.8773 71.791 83.2138 76.7364 77.0009ZM99.6842 145.459C99.5538 149.671 99.9696 153.815 100.956 157.882C102.517 164.305 108.769 170.034 114.974 170.905C122.494 171.957 128.574 169.539 132.506 162.893C134.98 158.714 137.018 154.248 138.951 149.778C140.359 146.515 139.472 144.712 136.295 143.148C135.404 142.712 134.459 142.381 133.505 142.082C130.788 141.232 128.054 140.413 125.326 139.612C117.778 137.396 109.932 136.806 102.222 135.418C101.771 135.335 100.753 136.074 100.686 136.538C100.247 139.494 99.994 142.482 99.6842 145.459ZM96.7707 115.905C96.7251 115.404 96.6797 114.69 96.5611 113.981C96.2401 112.003 95.2876 110.41 93.3663 109.746C91.2048 108.999 89.1125 109.402 87.3507 110.906C85.0856 112.841 84.1606 117.883 85.5767 120.493C86.6289 122.441 88.2719 123.381 90.5099 123.197C93.8951 122.927 96.6351 119.831 96.7707 115.905ZM152.226 138.367C151.831 141.66 154.194 145.396 156.852 145.679C159.502 145.962 162.922 143.514 163.268 141.087C163.744 137.789 161.496 134.442 158.489 133.974C155.311 133.483 152.585 135.392 152.226 138.367Z" fill="#CCA18F"/>
<path fill-rule="evenodd" clip-rule="evenodd" d="M175.22 294.642C172.668 296.664 166.515 299.694 163.816 300.261C161.534 300.738 160.263 300.246 159.207 298.191C158.482 296.795 157.907 295.307 157.405 293.805C156.757 291.905 156.281 289.946 155.682 288.023C154.895 285.494 154.406 285.132 151.752 284.963C151.04 284.919 150.322 284.826 149.614 284.881C143.281 285.43 137.134 284.103 130.95 283.127C127.572 282.587 124.173 282.161 120.803 281.605C118.699 281.261 116.579 280.909 114.534 280.306C112.842 279.807 111.547 280.346 110.686 282.049C110.361 282.692 110.148 283.388 109.847 284.031C107.732 288.593 105.697 293.19 103.438 297.681C101.469 301.601 100.826 301.871 96.6871 300.655C92.8768 299.541 89.142 298.152 85.6663 296.985C84.8089 295.454 85.1768 294.33 85.6067 293.282C86.3143 291.556 87.1658 289.886 87.9774 288.197C89.8932 284.177 91.8091 280.156 93.7408 276.144C94.5433 274.48 95.4175 272.852 96.3644 271.021C99.238 271.394 101.892 271.792 104.566 272.083C120.043 273.779 135.548 274.993 151.072 272.759C155.273 272.16 159.366 270.803 163.894 269.709C164.24 270.189 164.918 270.912 165.308 271.754C168.643 279.073 171.928 286.423 175.205 293.765C175.293 294.03 175.207 294.354 175.22 294.642Z" fill="#FFE7A4"/>
<path fill-rule="evenodd" clip-rule="evenodd" d="M94.6596 249.467C94.6583 244.676 95.6604 239.948 96.5015 235.19C98.6869 234.898 100.462 235.36 102.235 235.879C110.906 238.417 119.786 239.538 128.777 239.91C131.765 240.034 134.743 240.018 137.697 239.354C141.871 238.418 146.101 237.919 150.372 237.6C153.602 237.365 156.787 236.596 160.012 236.057C161.354 238.697 163.353 247.217 163.656 251.758C152.746 255.725 141.492 256.404 130.056 255.077C120.437 253.96 110.829 252.786 101.23 251.571C99.0098 251.305 96.6585 251.272 94.6596 249.467Z" fill="#DDF4E4"/>
<path fill-rule="evenodd" clip-rule="evenodd" d="M97.2721 230.52C97.5523 226.42 98.2428 222.409 99.1143 218.332C105.872 219.174 112.213 219.878 118.53 220.769C124.783 221.65 131.001 221.759 137.239 220.731C138.08 220.592 138.93 220.436 139.782 220.42C145.318 220.331 150.845 220.266 156.575 220.201C157.976 223.621 158.524 227.295 159.481 231.074C158.789 231.547 158.182 232.154 157.441 232.429C155.308 233.247 153.109 233.686 150.798 233.859C146.975 234.137 143.11 234.422 139.372 235.219C134.423 236.272 129.513 236.328 124.522 235.971C115.68 235.335 107.101 233.332 98.546 231.143C98.152 231.054 97.805 230.795 97.2721 230.52Z" fill="#28E7B1"/>
<path fill-rule="evenodd" clip-rule="evenodd" d="M93.1491 266.049C93.0471 261.762 93.2707 258.077 93.9714 254.223C95.9464 254.545 97.7343 254.884 99.5424 255.118C107.743 256.188 115.932 257.365 124.157 258.231C130.103 258.863 136.097 259.307 142.081 259.383C148.073 259.459 154.021 258.583 159.834 256.998C161.334 256.589 162.788 256.122 164.228 256.235C164.444 256.513 164.602 256.618 164.614 256.741C165.764 265.179 165.021 264.897 158.211 267.279C155.407 268.26 152.425 268.816 149.472 269.226C139.538 270.594 129.569 270.373 119.583 269.733C112.178 269.266 104.798 268.58 97.5009 267.216C96.132 266.951 94.7951 266.489 93.1491 266.049Z" fill="#28E7B1"/>
<path fill-rule="evenodd" clip-rule="evenodd" d="M246.192 150.329C247.067 152.026 246.617 153.392 246.054 154.73C245.662 155.657 245.125 156.52 244.757 157.448C244.415 158.303 244.451 159.262 245.268 159.761C245.783 160.067 246.649 160.133 247.224 159.934C248.564 159.47 249.803 158.707 251.128 158.194C251.903 157.888 252.773 157.823 253.485 157.679C254.683 158.569 254.384 159.589 253.977 160.482C253.249 162.108 251.963 163.254 250.422 164.087C249.544 164.561 248.635 164.976 247.764 165.475C246.976 165.928 246.348 166.649 246.621 167.56C246.792 168.164 247.351 168.825 247.908 169.1C249.055 169.66 250.343 169.907 251.516 170.419C252.513 170.859 253.65 171.247 253.933 172.535C252.952 173.988 251.348 173.696 250.034 174.129C249.097 174.428 248.065 174.478 247.144 174.811C245.984 175.233 245.574 176.593 246.246 177.676C246.773 178.523 247.458 179.27 247.993 180.118C248.291 180.588 248.423 181.167 248.623 181.666C247.123 183.54 245.418 183.778 243.238 183.079C239.464 181.869 236.281 179.846 233.688 176.846C233.408 176.524 233.088 176.209 232.899 175.833C229.719 169.552 226.595 163.264 227.637 155.836C227.904 153.954 228.403 152.18 229.358 150.555C229.705 149.97 230.282 149.526 230.79 148.98C233.515 150.273 234.394 152.707 235.241 155.147C235.569 156.085 235.676 157.113 236.071 158.005C236.564 159.105 238.298 159.155 238.899 158.097C239.317 157.36 239.52 156.508 239.85 155.727C241.111 152.696 242.698 151.316 246.192 150.329Z" fill="#CCA18F"/>
<path fill-rule="evenodd" clip-rule="evenodd" d="M21.4073 116.121C24.625 117.244 27.9549 120.084 29.942 123.453C30.3759 124.19 30.6521 125.02 31.0691 125.773C31.517 126.568 32.1853 127.118 33.1568 126.959C34.1776 126.786 34.484 125.995 34.5116 125.071C34.5286 124.212 34.392 123.338 34.5137 122.499C34.9361 119.338 37.8798 116.848 41.0841 116.849C42.1792 116.85 43.1101 117.533 43.092 118.63C43.0665 120.34 43.0944 122.135 42.5866 123.729C41.4977 127.134 40.096 130.446 38.7669 133.769C38.1205 135.381 37.308 136.881 35.5283 137.591C34.6879 137.927 34.469 138.762 34.2476 139.662C32.9053 145.007 27.949 148.984 22.5147 149.167C22.1327 149.185 21.7368 148.932 21.0883 148.71C21.3699 147.722 21.5922 146.797 21.919 145.901C22.1639 145.231 22.6814 144.644 22.8292 143.97C22.9672 143.337 22.9577 142.534 22.6792 141.975C22.2348 141.089 21.2848 141.11 20.417 141.314C19.59 141.511 18.796 141.906 17.9641 142.022C16.2513 142.259 14.515 142.265 13.0213 141.241C12.4841 140.868 11.7586 140.119 11.8337 139.647C11.9512 138.915 12.5244 137.938 13.1592 137.676C14.2966 137.212 15.6338 137.247 16.8612 136.975C17.982 136.732 18.4157 134.955 17.5616 134.177C17.154 133.809 16.6107 133.592 16.1523 133.279C15.4487 132.802 14.7031 132.363 14.0928 131.783C13.3414 131.074 12.84 130.195 13.3207 129.091C13.8021 127.972 14.5519 127.042 15.8327 127.067C17.0973 127.092 18.3708 127.305 19.6004 127.606C20.4122 127.801 21.1643 128.281 21.9196 128.679C22.7858 129.146 23.5837 129.071 24.2589 128.392C24.9594 127.691 24.8446 126.884 24.4232 126.032C23.4233 123.987 22.3991 121.941 21.5317 119.827C20.9829 118.496 21.0982 118.451 21.4073 116.121Z" fill="#CCA18F"/>
<path fill-rule="evenodd" clip-rule="evenodd" d="M154.264 207.377C155.523 210.07 155.377 212.808 155.94 215.647C154.995 215.963 154.232 216.4 153.451 216.452C151.605 216.569 149.745 216.423 147.9 216.507C143.641 216.711 139.381 216.948 135.127 217.25C131.295 217.528 127.482 217.954 123.623 217.469C117.834 216.745 112.024 216.169 106.224 215.518C104.116 215.281 102.019 214.963 99.9666 213.917C99.9359 210.935 100.739 208.206 101.188 205.202C101.992 205.184 102.696 205.006 103.306 205.177C113.611 208.065 124.159 207.801 134.7 207.726C136.972 207.715 139.249 207.771 141.503 208.022C144.209 208.323 146.881 208.459 149.571 207.916C151.083 207.606 152.635 207.551 154.264 207.377Z" fill="#DDF4E4"/>
<path fill-rule="evenodd" clip-rule="evenodd" d="M153.502 203.162C150.118 204.252 146.932 204.603 143.638 204.411C139.672 204.175 135.691 203.907 131.721 203.991C124.308 204.138 116.92 204.09 109.606 202.735C107.126 202.27 104.566 201.966 102.143 200.431C102.664 197.233 102.523 193.944 104.11 190.664C119.405 194.777 134.768 196.935 150.625 194.067C151.98 196.986 152.733 199.98 153.502 203.162Z" fill="#28E7B1"/>
<path fill-rule="evenodd" clip-rule="evenodd" d="M59.4297 112.358C57.0728 111.628 55.9087 109.634 54.8758 107.604C53.0969 104.096 52.2542 100.296 52.0483 96.3901C51.8787 93.2224 52.0901 90.0614 52.972 86.9753C53.5726 84.8693 54.4669 82.9302 55.9888 81.3348C57.4175 79.8422 59.112 79.4491 61.075 80.0819C64.7769 81.2733 66.8809 84.9743 65.5168 88.5741C62.8512 95.6203 61.3441 102.916 60.3994 110.356C60.3424 110.78 60.2288 111.202 60.0594 111.596C59.9602 111.855 59.7099 112.033 59.4297 112.358Z" fill="#CCA18F"/>
<path fill-rule="evenodd" clip-rule="evenodd" d="M38.6534 313.823C38.8113 312.887 38.8775 312.013 39.1122 311.187C40.4555 306.448 42.58 302.067 45.2698 297.962C46.3216 296.356 47.836 295.793 49.6549 295.748C51.0678 295.713 52.1368 296.18 52.7573 297.547C53.1761 298.464 53.6445 299.358 54.1796 300.206C54.9288 301.39 55.012 302.597 54.6685 303.927C54.3144 305.322 54.0731 306.737 53.7511 308.142C52.7058 312.728 50.0818 316.181 46.3042 318.836C44.6202 320.007 42.8657 320.275 41.0702 319.297C39.2584 318.317 38.5777 316.621 38.6153 314.599C38.6263 314.313 38.6455 314.027 38.6534 313.823Z" fill="#28E7B1"/>
<path fill-rule="evenodd" clip-rule="evenodd" d="M194.155 160.995C196.392 157.29 198.308 154.293 200.035 151.182C201.7 148.2 203.158 145.104 204.739 141.987C207.295 141.767 209.68 142.178 211.935 143.019C214.838 144.097 215.798 146.133 215.063 149.184C214.869 150.003 214.505 150.816 214.079 151.553C213.008 153.453 211.583 155.06 209.791 156.293C205.333 159.355 200.361 160.785 194.155 160.995Z" fill="#CCA18F"/>
<path fill-rule="evenodd" clip-rule="evenodd" d="M211.834 306.302C213.51 307.865 215.059 309.334 216.634 310.787C218.991 312.974 220.037 315.717 219.889 318.897C219.807 320.606 219.635 322.343 219.222 323.998C218.992 324.906 218.278 325.747 217.625 326.467C216.947 327.219 215.65 327.201 214.916 326.477C214.314 325.888 213.715 325.21 213.379 324.46C211.25 319.726 209.901 314.752 209.281 309.585C209.085 307.956 209.73 306.802 211.834 306.302Z" fill="#28E7B1"/>
<path fill-rule="evenodd" clip-rule="evenodd" d="M84.2955 119.017C77.8648 115.599 69.6113 116.943 65.4498 123.235C62.451 127.779 63.2732 134.419 66.2706 138.933C67.815 142.211 70.7792 144.856 74.2167 145.751C81.3886 147.625 87.7335 143.399 90.5963 136.917C93.4226 130.54 90.2734 122.188 84.2955 119.017Z" fill="#EBC6B6"/>
<path fill-rule="evenodd" clip-rule="evenodd" d="M180.949 151.049C178.802 146.167 174.338 143.709 169.404 143.527C166.672 143.069 163.797 143.359 161.274 144.416C153.399 147.715 152.108 157.812 156.882 164.22C161.201 170.021 169.676 172.175 175.879 168.05C181.441 164.359 183.687 157.256 180.949 151.049Z" fill="#EBC6B6"/>
<path fill-rule="evenodd" clip-rule="evenodd" d="M69.0446 81.6925C70.6048 79.1076 71.9311 76.9068 73.1616 74.8743C73.088 74.4702 73.1105 74.3073 73.0333 74.206C69.3983 68.7669 70.2828 63.3061 72.9602 57.8408C73.4624 56.812 74.068 55.8363 74.7042 54.698C73.9192 54.0207 73.1734 53.3777 72.4272 52.7428C70.135 50.7624 68.8952 48.2086 68.6943 45.2199C68.3897 40.7203 69.5609 36.6545 72.716 33.3124C77.2163 28.54 82.9124 26.6228 89.2664 26.3608C90.8182 26.2979 92.3856 26.465 93.7221 26.5166C94.1511 26.1237 94.4979 25.9652 94.5308 25.7454C95.639 19.1139 99.5021 14.2431 104.379 10.0176C105.353 9.1708 106.396 8.40859 107.478 7.71336C110.181 5.98347 113.154 5.05017 116.371 4.93705C120.368 4.78858 123.594 6.31369 126.043 9.48757C126.824 10.4923 127.529 11.5433 128.276 12.5876C128.805 12.3296 129.224 12.2066 129.558 11.9574C137.785 5.84685 146.888 6.01048 156.139 8.46462C160.13 9.51975 163.182 12.1928 164.878 16.1729C165.102 16.6893 165.366 17.1909 165.561 17.5997C166.623 18.2468 167.295 17.4538 168.02 17.1543C176.126 13.7579 186.448 16.1961 192.625 23.2321C194.358 25.2073 195.477 27.5272 195.812 30.1853C195.985 31.6005 196.157 33.024 196.347 34.62C197.426 35.0303 198.473 35.4393 199.53 35.8077C204.852 37.6677 209.627 40.4812 213.778 44.3269C214.828 45.2928 215.825 46.3469 216.657 47.5092C219.581 51.5941 219.653 55.626 216.995 59.9537C216.77 60.3217 216.529 60.6727 216.15 61.2477C216.881 61.841 217.568 62.5473 218.385 63.0375C220.985 64.6121 223.303 66.5362 225.242 68.8386C226.515 70.3455 227.689 72.0698 228.405 73.8991C229.851 77.6321 229.297 81.2631 226.868 84.5022C225.927 85.7516 224.9 86.9239 223.767 88.3132C224.653 89.7397 225.462 91.0731 226.287 92.3989C227.348 94.1024 228.501 95.7521 229.463 97.5172C230.077 98.6383 230.549 99.8768 230.841 101.125C231.894 105.563 230.482 108.301 226.262 110.038C225.083 110.525 223.801 110.745 222.569 111.132C221.772 111.379 220.997 111.71 220.018 112.073C220.567 112.979 220.959 113.731 221.444 114.413C222.199 115.458 223.053 116.433 223.808 117.485C227.664 122.867 227.464 127.822 223.183 132.8C221.391 134.884 219.327 136.639 216.915 137.971C216.07 138.438 215.261 138.996 214.413 139.528C214.731 139.909 214.883 140.169 215.096 140.324C216.864 141.613 218.456 143.009 218.795 145.373C219.19 148.164 218.852 150.829 217.426 153.296C215.434 156.765 212.623 159.384 209.091 161.147C204.699 163.336 200.084 164.771 195.107 164.668C193.972 164.649 192.839 164.581 191.511 164.529C190.704 165.448 189.825 166.381 189.024 167.373C181.479 176.811 172.496 184.456 161.7 189.861C161.46 189.983 161.264 190.221 160.811 190.613C161.38 191.012 161.839 191.513 162.391 191.698C173.089 195.338 183.921 195.708 194.858 192.937C205.025 190.365 214.644 186.438 223.595 180.896C225.432 179.763 227.174 178.544 228.618 176.463C227.708 174.176 226.729 171.804 225.816 169.418C223.81 164.206 222.962 158.883 224.295 153.341C224.845 151.077 225.658 148.93 227.156 147.129C229.223 144.654 231.87 144.388 234.26 146.569C235.6 147.792 236.693 149.3 238.007 150.792C238.962 150.002 239.772 149.181 240.712 148.579C241.91 147.823 243.15 147.002 244.479 146.62C247.588 145.749 249.823 147.318 250.322 150.547C250.479 151.528 250.44 152.534 250.508 153.716C251.642 153.759 252.728 153.793 253.805 153.843C256.259 153.954 257.453 154.95 258.01 157.331C258.573 159.776 257.786 161.883 256.373 163.802C255.62 164.821 254.749 165.738 253.78 166.88C254.745 167.711 255.645 168.368 256.418 169.152C259.072 171.842 258.64 174.815 255.346 176.505C254.229 177.076 253.013 177.463 251.818 177.949C252.061 179.638 252.457 181.16 252.479 182.692C252.509 185.052 251.854 185.641 249.729 186.459C244.763 188.38 240.488 186.495 236.364 184.034C234.549 182.949 232.95 181.478 231.099 180.056C229.511 181.255 228.009 182.565 226.346 183.598C214.169 191.153 201.111 196.331 186.852 198.147C177.599 199.329 168.666 197.886 159.918 194.837C158.469 194.331 157.021 193.808 155.156 193.146C155.18 194.212 155.038 194.935 155.243 195.516C157.57 202.051 158.547 208.878 159.867 215.661C161.6 224.556 163.831 233.347 165.753 242.201C166.785 246.974 167.743 251.777 168.497 256.614C168.985 259.728 169.21 262.939 167.851 265.974C167.238 267.342 167.877 268.464 168.431 269.648C170.627 274.336 172.79 279.03 174.952 283.732C175.491 284.908 175.997 286.099 176.486 287.297C177.344 289.435 178.223 291.475 180.168 292.975C181.641 294.113 181.306 295.869 179.692 296.896C177.771 298.115 175.812 299.276 173.66 300.593C173.848 301.608 173.915 302.593 174.228 303.506C175.292 306.635 176.256 309.825 177.608 312.825C178.722 315.284 180.104 317.713 181.784 319.809C185.12 323.959 189.745 324.555 193.888 321.251C199.078 317.103 203.391 312.152 205.756 305.733C207.044 302.22 211.361 300.921 214.141 303.297C216.309 305.15 218.364 307.178 220.302 309.284C221.252 310.312 222.013 311.611 222.539 312.917C224.294 317.251 224.066 321.681 222.495 326.002C221.333 329.208 218.918 330.834 216.058 330.74C214.073 330.671 212.407 329.911 211.31 328.263C210.444 326.96 209.671 325.547 209.136 324.076C208.24 321.65 207.574 319.152 206.785 316.681C206.539 315.91 206.219 315.168 205.806 314.088C204.658 315.476 203.802 316.614 202.838 317.65C200.976 319.634 199.169 321.693 197.136 323.49C190.407 329.453 182.373 327.423 178.14 321.297C176.519 318.95 175.1 316.414 173.952 313.798C172.625 310.782 171.71 307.586 170.597 304.472C170.363 303.832 170.037 303.221 169.671 302.413C168.16 302.895 166.836 303.36 165.499 303.742C160.683 305.12 157.486 303.678 155.384 299.084C154.614 297.392 154.092 295.578 153.487 293.819C152.968 292.333 152.491 290.832 151.953 289.206C150.937 289.044 149.953 288.687 149.009 288.781C143.382 289.325 137.916 288.017 132.43 287.24C127.782 286.585 123.194 285.441 118.484 285.161C117.076 285.074 115.695 284.701 114.075 284.425C113.681 285.172 113.264 285.884 112.911 286.616C110.655 291.262 108.541 295.996 106.109 300.553C103.617 305.223 102.111 305.763 97.0752 304.675C96.1098 304.466 95.1344 304.306 94.1353 304.128C93.004 305.271 92.8499 306.74 92.4248 308.083C91.4554 311.124 90.0571 313.928 88.2203 316.535C84.1076 322.404 77.2793 322.975 72.2325 320.479C69.2474 319.004 66.7337 316.876 64.5003 314.423C62.4768 312.207 60.5373 309.912 58.6023 307.717C57.4997 307.699 57.4846 308.509 57.3453 309.175C56.1121 314.843 52.7711 319.005 48.1131 322.191C45.2715 324.137 42.2509 324.421 39.2447 322.651C36.2859 320.915 34.8072 318.245 34.9008 314.777C34.9345 313.484 35.0019 312.16 35.3254 310.928C36.7859 305.465 39.203 300.44 42.2982 295.711C44.1429 292.9 46.6255 291.636 49.9085 291.911C51.4531 292.036 52.9877 292.21 54.289 292.334C56.064 295.523 57.6816 298.378 59.2331 301.263C61.7839 305.997 65.205 310.044 69.0965 313.675C70.4433 314.931 71.9898 316.055 73.6028 316.928C78.0455 319.311 82.2886 318.255 85.3099 314.179C87.7574 310.883 89.0232 307.099 89.9228 302.925C89.0236 302.472 88.1824 301.989 87.3043 301.62C85.9871 301.069 84.6068 300.68 83.3073 300.089C81.7129 299.364 80.8397 298.029 81.1594 296.264C81.4894 294.442 81.974 292.61 82.633 290.883C83.3543 289.011 84.3632 287.256 85.2366 285.439C87.5847 280.518 89.9251 275.589 92.3612 270.491C91.9169 270.023 91.6103 269.561 91.1917 269.266C89.8877 268.372 89.3619 267.075 89.2899 265.581C89.2264 264.285 89.244 262.992 89.3591 261.694C90.2702 250.928 91.8109 240.243 93.5214 229.573C94.8464 221.32 96.1144 213.073 97.4229 204.828C97.8944 201.865 98.4061 198.912 98.9356 195.706C97.8675 195.427 97.0903 195.176 96.2934 195.014C93.0577 194.357 89.9845 193.272 86.97 191.927C75.0469 186.626 64.7013 179.134 55.8925 169.449C49.0369 161.912 42.3231 154.274 36.7078 145.712C36.639 145.602 36.4867 145.556 36.3521 145.468C35.2406 145.262 34.9107 146.24 34.4882 146.887C32.0117 150.722 28.1938 152.114 24.012 152.845C23.1869 152.993 22.303 152.984 21.4634 152.877C18.6213 152.53 17.4919 151.315 17.2468 148.423C17.1954 147.864 17.2823 147.294 17.3146 146.46C16.166 146.162 15.0795 145.94 14.0466 145.589C12.8454 145.182 11.5695 144.822 10.5171 144.134C7.69298 142.272 7.16481 139.148 9.07752 136.257C9.54275 135.555 10.1425 134.939 10.7639 134.185C9.12253 131.526 8.73147 128.841 10.6531 126.139C12.0681 124.163 13.0114 123.683 18.2377 122.583C18.05 121.773 17.7729 120.968 17.707 120.155C17.5702 118.446 17.3213 116.7 17.5164 115.013C17.8123 112.395 19.5744 111.301 22.1257 112.038C23.329 112.388 24.5222 112.999 25.5568 113.727C26.9633 114.698 28.215 115.893 29.5354 116.993C30.1719 117.525 30.8081 118.065 31.5468 118.684C32.4446 117.703 33.1994 116.856 33.9778 116.026C35.8554 114.043 38.2499 113.169 40.8702 112.959C44.0357 112.705 46.3056 114.635 46.83 117.858C47.2289 120.338 46.8587 122.781 46.1679 125.121C44.5186 130.642 42.4695 136.009 38.8855 140.792C39.4365 143.327 41.0118 145.387 42.4971 147.467C47.7523 154.852 53.6864 161.674 59.9406 168.189C63.2001 171.591 66.7441 174.766 70.4269 177.709C76.6041 182.648 83.4905 186.453 90.8063 189.43C92.7708 190.234 94.8873 190.677 96.963 191.125C98.1053 191.374 98.2437 191.15 99.4843 189.069C98.6845 188.563 97.9209 187.96 97.0684 187.559C91.3401 184.856 86.0565 181.351 81.3416 177.197C73.1667 170.002 66.9667 161.246 63.3959 150.789C60.3346 141.842 59.1094 132.615 59.4668 123.162C59.5443 121.158 59.6217 119.155 59.6998 117.135C51.7385 113.437 49.5888 106.303 48.5848 98.6969C48.0091 94.2852 48.144 89.7453 49.6488 85.4467C50.3053 83.5722 51.141 81.68 52.2826 80.0617C55.579 75.3738 61.3565 74.7045 65.7652 78.3882C66.7937 79.2715 67.725 80.3639 69.0446 81.6925ZM200.224 135.982C201.289 136.335 202.204 136.804 203.165 136.907C204.28 137.032 205.427 136.749 206.561 136.784C212.288 136.997 216.752 134.427 220.402 130.244C223.568 126.624 223.639 123.727 220.841 119.737C220.103 118.677 219.24 117.718 218.477 116.673C217.807 115.746 217.096 114.826 216.584 113.807C215.342 111.303 216.152 109.238 218.72 108.28C219.782 107.887 220.931 107.743 222.024 107.401C223.247 107.022 224.463 106.619 225.643 106.108C226.98 105.529 227.575 104.389 227.331 102.954C227.139 101.833 226.875 100.685 226.37 99.6824C225.61 98.1462 224.627 96.7161 223.71 95.2638C222.801 93.8037 221.809 92.3978 220.933 90.9144C219.7 88.8194 219.875 86.7952 221.488 84.9412C222.244 84.0778 223.054 83.2656 223.762 82.3594C225.854 79.6804 225.973 76.7942 224.341 73.8976C223.65 72.6671 222.687 71.557 221.713 70.5203C219.649 68.303 217.184 66.5944 214.548 65.1167C213.674 64.6325 212.749 64.2282 211.919 63.672C210.535 62.7504 210.405 61.2713 211.574 59.9898C212.057 59.4598 212.665 59.0656 213.163 58.5526C215.546 56.0896 215.946 53.7302 214.228 50.732C213.461 49.392 212.389 48.1549 211.253 47.1037C207.094 43.2659 202.31 40.4849 196.853 38.9472C192.407 37.6943 192.368 37.66 192.327 32.8431C192.302 29.2961 190.927 26.4668 188.29 24.1619C185.638 21.8319 182.576 20.2394 179.174 19.682C174.217 18.8679 169.447 19.2732 165.867 23.5488C165.688 23.7712 165.454 23.9505 165.251 24.1474C164.57 24.7844 163.697 25.1192 162.93 24.59C162.425 24.2429 162.089 23.4683 161.936 22.8236C161.775 22.1459 161.926 21.3982 161.946 20.6783C162.004 17.4949 160.515 15.0789 157.931 13.5294C156.25 12.5226 154.313 11.8499 152.408 11.375C149.339 10.6094 146.183 10.8231 143.039 10.9472C138.757 11.1175 134.99 12.4459 131.593 15.1235C127.46 18.3787 126.948 18.1951 124.247 13.5538C121.843 9.42349 119.337 8.16368 114.632 8.98908C113.113 9.25792 111.553 9.7381 110.225 10.5057C105.678 13.147 102.135 16.859 99.7451 21.5984C98.8403 23.3896 98.1052 25.1956 99.0359 27.3527C99.6016 28.6685 98.5718 29.9144 97.1538 30.0807C96.5914 30.149 96.0201 30.0286 95.4515 30.0476C92.3234 30.1723 89.1779 30.1162 86.0886 30.4964C82.1843 30.976 78.7136 32.6189 75.8466 35.4317C72.9376 38.2837 72.1196 41.8145 72.5932 45.7227C72.8434 47.8535 74.081 49.4163 75.8627 50.5417C77.3751 51.501 78.792 51.1545 80.2981 50.3856C81.1421 49.9596 82.2101 49.8207 83.1669 49.8331C84.0265 49.8418 84.9238 50.3433 85.041 51.2978C85.1142 51.923 84.857 52.6993 84.5034 53.2425C83.6752 54.5207 82.3695 55.1418 80.8954 55.2895C79.8451 55.3882 78.9645 55.7144 78.2833 56.548C75.7536 59.6604 74.1729 63.1944 74.4137 67.2493C74.6646 71.4601 76.5799 73.3277 79.8141 74.026C81.9701 74.4942 84.1157 74.6017 86.0996 73.6466C88.0093 72.7213 89.7999 71.5212 91.5963 70.3786C92.4363 69.846 93.139 69.087 93.9786 68.5626C95.2172 67.7915 96.7576 68.6536 96.7013 70.1092C96.6574 71.2458 96.4664 72.4095 96.1324 73.494C95.3237 76.157 95.1611 78.8941 95.291 81.618C95.5805 87.5583 99.5451 90.7663 105.354 89.9181C105.639 89.88 105.917 89.8252 106.188 89.7456C110.364 88.5476 114.266 86.8722 117.072 83.3119C117.337 82.9782 117.543 82.462 117.88 82.344C118.505 82.1225 119.335 81.8679 119.844 82.1251C120.329 82.365 120.727 83.2075 120.784 83.8239C120.848 84.4897 120.415 85.1936 120.315 85.8941C120.078 87.5965 119.663 89.3166 119.752 91.007C120.121 98.4572 125.613 102.224 132.493 99.6972C134.879 98.8231 137.084 97.4179 139.36 96.2283C139.99 95.9005 140.545 95.3733 141.202 95.1694C141.687 95.0162 142.49 95.0226 142.786 95.3289C143.215 95.7714 143.462 96.5343 143.518 97.1835C143.562 97.7093 143.136 98.2497 143.025 98.8023C142.692 100.485 142.205 102.177 142.156 103.871C142.022 109.017 144.645 111.878 149.766 112.453C152.383 112.75 154.879 112.388 157.209 111.086C158.212 110.527 159.163 109.851 160.217 109.458C160.785 109.251 161.731 109.32 162.155 109.68C162.587 110.049 162.732 110.931 162.723 111.586C162.72 112.282 162.32 112.962 162.22 113.671C161.954 115.52 161.55 117.371 161.575 119.223C161.629 123.082 162.873 126.586 165.554 129.417C168.422 132.452 173.198 132.718 176.431 130.083C177.202 129.45 177.794 128.605 178.55 127.954C179.774 126.912 181.366 127.285 182.112 128.772C182.496 129.54 182.698 130.391 183.066 131.167C183.673 132.468 184.212 133.824 185.003 134.993C187.436 138.567 191.586 139.702 195.578 138.006C197.168 137.379 198.713 136.661 200.224 135.982ZM76.738 77.0026C71.7926 83.2155 68.1459 90.879 66.3184 98.49C63.7083 109.346 62.6655 120.37 63.3304 131.5C63.9218 141.383 66.1911 150.881 71.4678 159.389C76.0417 166.772 81.5105 173.248 88.7894 178.231C95.9814 183.152 103.586 186.853 112.038 188.768C119.573 190.485 127.187 191.393 134.924 191.668C143.236 191.965 151.102 190.352 158.661 187.041C167.433 183.196 174.83 177.381 181.425 170.453C185.788 165.872 189.467 160.732 193.027 155.531C196.036 151.143 198.617 146.484 200.61 141.525C200.843 140.944 201.269 140.208 200.221 139.618C199.332 140.165 198.383 140.784 197.396 141.344C195.746 142.279 193.985 142.718 192.064 142.661C187.592 142.512 184.139 140.553 181.679 136.813C180.898 135.62 180.233 134.358 179.426 132.975C178.457 133.503 177.611 133.97 176.75 134.42C173.951 135.9 171.09 136.043 168.04 135.197C164.621 134.245 162.322 132.011 160.61 129.087C158.845 126.07 157.827 122.804 157.868 119.235C157.881 118.04 158.404 116.701 157.519 115.651C155.24 115.85 153.132 116.235 151.025 116.195C142.878 116.027 139.006 112.323 138.257 104.195C138.19 103.423 138.025 102.663 137.881 101.756C135.84 102.505 134.146 103.323 132.361 103.738C124.625 105.551 119.526 102.521 116.98 95.7643C116.583 94.6926 116.401 93.5472 116.119 92.4308C115.95 91.7772 115.78 91.1237 115.541 90.1727C113.842 90.9014 112.432 91.502 111.021 92.1108C107.811 93.5099 104.511 94.103 100.995 93.5575C97.4708 93.0118 94.9732 91.0972 93.266 88.0421C91.9762 85.732 91.4736 83.2066 91.5514 80.5645C91.5943 79.0347 91.6045 77.5119 91.6388 75.1547C86.6762 78.2467 81.881 78.8966 76.738 77.0026ZM175.22 294.643C175.215 294.356 175.292 294.031 175.188 293.798C171.91 286.457 168.625 279.107 165.29 271.787C164.901 270.937 164.223 270.223 163.876 269.743C159.356 270.837 155.256 272.194 151.054 272.793C135.531 275.018 120.026 273.813 104.548 272.117C101.874 271.825 99.2124 271.427 96.347 271.054C95.4081 272.885 94.534 274.514 93.7233 276.178C91.7835 280.189 89.8757 284.21 87.9599 288.231C87.1564 289.92 86.3049 291.59 85.5892 293.315C85.1593 294.363 84.7913 295.487 85.6488 297.019C89.1245 298.185 92.8596 299.566 96.6696 300.688C100.809 301.904 101.444 301.634 103.42 297.714C105.679 293.224 107.706 288.626 109.83 284.065C110.131 283.413 110.344 282.725 110.669 282.082C111.538 280.38 112.824 279.84 114.517 280.339C116.562 280.934 118.682 281.295 120.786 281.638C124.155 282.194 127.554 282.621 130.932 283.161C137.117 284.145 143.272 285.464 149.596 284.914C150.304 284.851 151.023 284.945 151.735 284.997C154.397 285.165 154.886 285.528 155.664 288.056C156.263 289.979 156.747 291.939 157.388 293.839C157.89 295.332 158.465 296.829 159.19 298.224C160.246 300.28 161.517 300.771 163.798 300.294C166.507 299.695 172.668 296.665 175.22 294.643ZM94.6586 249.467C96.6655 251.273 99.0087 251.306 101.229 251.589C110.835 252.804 120.444 253.978 130.054 255.094C141.49 256.421 152.736 255.742 163.654 251.775C163.351 247.234 161.345 238.705 160.011 236.074C156.777 236.612 153.592 237.382 150.37 237.618C146.099 237.928 141.869 238.435 137.696 239.371C134.741 240.035 131.764 240.043 128.775 239.927C119.785 239.547 110.904 238.434 102.233 235.896C100.46 235.377 98.6852 234.915 96.4998 235.207C95.6594 239.949 94.6572 244.677 94.6586 249.467ZM97.2732 230.52C97.8142 230.795 98.1612 231.054 98.5468 231.151C107.094 233.34 115.681 235.335 124.523 235.98C129.514 236.344 134.424 236.289 139.373 235.227C143.111 234.43 146.976 234.145 150.799 233.867C153.11 233.694 155.309 233.255 157.442 232.437C158.175 232.154 158.79 231.547 159.482 231.083C158.524 227.303 157.985 223.63 156.576 220.21C150.846 220.283 145.319 220.339 139.783 220.428C138.93 220.444 138.081 220.592 137.24 220.739C131.002 221.768 124.776 221.65 118.531 220.778C112.214 219.887 105.873 219.183 99.1151 218.34C98.2439 222.409 97.5531 226.428 97.2732 230.52ZM93.1495 266.05C94.7874 266.49 96.1324 266.951 97.5097 267.209C104.806 268.581 112.187 269.259 119.592 269.726C129.569 270.365 139.547 270.587 149.481 269.219C152.433 268.809 155.416 268.253 158.22 267.272C165.029 264.89 165.773 265.173 164.623 256.734C164.611 256.611 164.461 256.507 164.237 256.228C162.797 256.115 161.335 256.582 159.843 256.991C154.03 258.577 148.082 259.46 142.09 259.376C136.106 259.3 130.12 258.856 124.165 258.224C115.941 257.358 107.752 256.181 99.5512 255.111C97.7431 254.877 95.9553 254.538 93.9802 254.216C93.2792 258.079 93.0556 261.763 93.1495 266.05ZM246.194 150.33C242.7 151.317 241.105 152.697 239.861 155.712C239.53 156.493 239.327 157.353 238.909 158.082C238.309 159.132 236.582 159.09 236.081 157.99C235.686 157.09 235.572 156.07 235.251 155.132C234.404 152.7 233.533 150.259 230.8 148.965C230.284 149.511 229.707 149.955 229.368 150.54C228.414 152.157 227.907 153.931 227.647 155.821C226.605 163.257 229.729 169.537 232.91 175.818C233.098 176.194 233.418 176.509 233.698 176.831C236.292 179.831 239.475 181.845 243.249 183.064C245.428 183.763 247.133 183.534 248.633 181.651C248.433 181.152 248.302 180.573 248.003 180.103C247.468 179.255 246.783 178.508 246.256 177.661C245.584 176.578 245.994 175.21 247.154 174.796C248.084 174.464 249.108 174.413 250.044 174.114C251.35 173.689 252.954 173.981 253.943 172.52C253.66 171.232 252.523 170.844 251.526 170.404C250.353 169.892 249.065 169.645 247.918 169.085C247.361 168.81 246.803 168.149 246.631 167.545C246.359 166.625 246.987 165.904 247.775 165.46C248.646 164.961 249.554 164.546 250.432 164.072C251.982 163.239 253.259 162.093 253.987 160.467C254.387 159.574 254.694 158.554 253.495 157.664C252.784 157.808 251.913 157.881 251.139 158.179C249.813 158.692 248.575 159.455 247.234 159.919C246.659 160.118 245.793 160.052 245.278 159.745C244.462 159.247 244.418 158.287 244.767 157.433C245.135 156.505 245.672 155.641 246.065 154.715C246.627 153.394 247.077 152.027 246.194 150.33ZM21.408 116.121C21.0911 118.443 20.9755 118.496 21.525 119.811C22.4008 121.917 23.4169 123.963 24.4165 126.016C24.8378 126.867 24.9526 127.674 24.2522 128.376C23.5773 129.046 22.7793 129.122 21.9129 128.663C21.1576 128.265 20.4054 127.785 19.5936 127.59C18.3641 127.289 17.0825 127.075 15.826 127.051C14.5452 127.026 13.7954 127.956 13.314 129.075C12.8333 130.179 13.3347 131.058 14.0861 131.767C14.6964 132.347 15.4421 132.785 16.1456 133.263C16.6121 133.576 17.1553 133.793 17.5549 134.161C18.409 134.939 17.9753 136.716 16.8545 136.959C15.6271 137.231 14.2902 137.188 13.1525 137.66C12.5261 137.914 11.9445 138.899 11.827 139.631C11.7522 140.095 12.4774 140.852 13.0146 141.225C14.5083 142.249 16.2443 142.251 17.9573 142.006C18.7893 141.89 19.5833 141.495 20.4103 141.298C21.27 141.094 22.228 141.073 22.6724 141.959C22.951 142.518 22.9605 143.321 22.8224 143.954C22.6747 144.628 22.1569 145.223 21.9122 145.885C21.5858 146.773 21.3713 147.706 21.0816 148.694C21.7304 148.908 22.1263 149.161 22.508 149.151C27.9422 148.968 32.8988 144.983 34.2409 139.646C34.4701 138.754 34.6811 137.911 35.5216 137.575C37.3013 136.865 38.1056 135.365 38.7602 133.753C40.0893 130.43 41.4829 127.118 42.5799 123.713C43.0877 122.119 43.0597 120.324 43.0853 118.614C43.1033 117.517 42.1725 116.834 41.0774 116.833C37.873 116.832 34.9374 119.322 34.5069 122.483C34.3934 123.322 34.53 124.196 34.5049 125.055C34.485 125.987 34.1708 126.77 33.1501 126.943C32.1786 127.102 31.5103 126.552 31.0624 125.757C30.6369 125.012 30.3688 124.182 29.9352 123.437C27.9556 120.084 24.6336 117.253 21.408 116.121ZM154.265 207.377C152.644 207.552 151.092 207.607 149.588 207.917C146.89 208.46 144.226 208.324 141.52 208.023C139.266 207.772 136.981 207.716 134.717 207.727C124.176 207.803 113.628 208.075 103.323 205.179C102.713 205.008 102.009 205.185 101.205 205.203C100.756 208.208 99.953 210.936 99.9838 213.919C102.036 214.972 104.125 215.283 106.241 215.52C112.041 216.17 117.851 216.747 123.64 217.47C127.499 217.947 131.312 217.521 135.144 217.252C139.398 216.949 143.658 216.713 147.917 216.509C149.762 216.416 151.622 216.562 153.468 216.453C154.248 216.41 155.004 215.972 155.957 215.649C155.377 212.809 155.524 210.071 154.265 207.377ZM153.503 203.163C152.734 199.981 151.982 196.987 150.626 194.06C134.769 196.927 119.407 194.769 104.112 190.657C102.533 193.937 102.673 197.226 102.144 200.424C104.575 201.959 107.127 202.271 109.608 202.727C116.921 204.091 124.31 204.131 131.722 203.984C135.692 203.908 139.673 204.168 143.639 204.403C146.941 204.605 150.127 204.253 153.503 203.163ZM59.4302 112.358C59.7105 112.034 59.9611 111.847 60.0678 111.605C60.2372 111.21 60.3508 110.789 60.4077 110.365C61.3525 102.925 62.8596 95.6292 65.5251 88.5829C66.8896 84.975 64.7775 81.2736 61.0834 80.0908C59.1203 79.458 57.4258 79.8511 55.9971 81.3436C54.4752 82.939 53.5806 84.8863 52.9803 86.9841C52.0987 90.062 51.887 93.2313 52.0565 96.3989C52.2625 100.305 53.1053 104.105 54.8842 107.613C55.9093 109.635 57.0734 111.629 59.4302 112.358ZM38.6531 313.824C38.6452 314.029 38.626 314.315 38.623 314.601C38.5773 316.622 39.2584 318.311 41.0779 319.299C42.8735 320.277 44.628 320.009 46.312 318.838C50.0895 316.183 52.7135 312.73 53.7589 308.144C54.0809 306.739 54.3141 305.323 54.6763 303.929C55.0198 302.599 54.9366 301.392 54.1874 300.208C53.6523 299.36 53.1839 298.466 52.7651 297.549C52.1362 296.19 51.0753 295.723 49.6627 295.75C47.8441 295.786 46.3293 296.358 45.2775 297.964C42.5877 302.069 40.4633 306.45 39.12 311.189C38.8772 312.015 38.8109 312.889 38.6531 313.824ZM194.154 160.996C200.36 160.785 205.323 159.364 209.798 156.285C211.59 155.053 213.007 153.445 214.086 151.546C214.504 150.809 214.868 149.995 215.07 149.176C215.805 146.117 214.846 144.082 211.942 143.011C209.687 142.171 207.309 141.768 204.746 141.98C203.165 145.096 201.707 148.193 200.042 151.175C198.316 154.285 196.39 157.29 194.154 160.996ZM211.835 306.303C209.731 306.803 209.086 307.958 209.274 309.587C209.886 314.753 211.243 319.727 213.372 324.461C213.707 325.22 214.306 325.89 214.908 326.478C215.643 327.202 216.948 327.22 217.618 326.468C218.271 325.74 218.993 324.9 219.214 323.999C219.627 322.345 219.8 320.607 219.882 318.899C220.037 315.719 218.992 312.976 216.626 310.788C215.06 309.335 213.502 307.875 211.835 306.303Z" fill="#6B4434"/>
<path fill-rule="evenodd" clip-rule="evenodd" d="M99.6857 145.458C100.004 142.482 100.257 139.494 100.696 136.53C100.763 136.066 101.781 135.327 102.232 135.41C109.934 136.805 117.78 137.395 125.336 139.604C128.072 140.406 130.798 141.224 133.515 142.074C134.461 142.372 135.414 142.704 136.305 143.14C139.474 144.695 140.369 146.507 138.961 149.769C137.02 154.239 134.99 158.706 132.516 162.885C128.584 169.53 122.503 171.957 114.984 170.896C108.779 170.026 102.526 164.305 100.966 157.874C99.9707 153.823 99.5471 149.671 99.6857 145.458ZM135.558 147.14C134.828 146.735 134.253 146.295 133.604 146.074C124.678 142.977 115.536 140.871 106.137 139.951C104.739 139.815 104.011 140.376 103.863 141.894C103.402 146.486 103.387 151.064 104.265 155.635C105.277 160.923 108.448 164.33 113.118 166.476C116.929 168.22 123.972 167.968 127.875 162.902C128.832 161.662 129.806 160.389 130.525 158.992C132.165 155.804 133.678 152.546 135.183 149.288C135.466 148.684 135.431 147.93 135.558 147.14Z" fill="#6B4434"/>
<path fill-rule="evenodd" clip-rule="evenodd" d="M135.558 147.141C135.43 147.93 135.466 148.685 135.183 149.288C133.678 152.547 132.165 155.797 130.524 158.993C129.805 160.382 128.831 161.654 127.875 162.903C123.971 167.969 116.92 168.229 113.118 166.477C108.447 164.33 105.277 160.924 104.265 155.635C103.387 151.065 103.402 146.487 103.863 141.895C104.019 140.377 104.738 139.816 106.137 139.952C115.536 140.872 124.678 142.978 133.604 146.074C134.252 146.304 134.827 146.736 135.558 147.141Z" fill="#FFF2E1"/>
<path fill-rule="evenodd" clip-rule="evenodd" d="M96.7711 115.905C96.6355 119.831 93.8958 122.919 90.5184 123.198C88.2804 123.382 86.6375 122.442 85.5852 120.493C84.1691 117.883 85.0941 112.842 87.3593 110.906C89.1214 109.394 91.2137 108.992 93.3748 109.747C95.2961 110.411 96.2567 112.004 96.5696 113.981C96.6721 114.69 96.7172 115.412 96.7711 115.905Z" fill="#6B4434"/>
<path fill-rule="evenodd" clip-rule="evenodd" d="M152.227 138.368C152.585 135.393 155.312 133.483 158.489 133.975C161.497 134.443 163.744 137.789 163.268 141.088C162.923 143.515 159.494 145.954 156.852 145.68C154.194 145.405 151.824 141.661 152.227 138.368Z" fill="#6B4434"/>
</svg>
